<svg width="221" height="50" viewBox="0 0 221 50" fill="none" xmlns="http://www.w3.org/2000/svg">
<path d="M57.6587 49.8614V42.0308H59.1684V49.8614H57.6587Z" fill="white"/>
<path d="M63.8691 49.8614V42.0308H65.3788L68.9811 47.4343V42.0308H70.4908V49.8614H68.9811L65.3788 44.4702V49.8614H63.8691Z" fill="white"/>
<path d="M77.3579 49.8614L74.5073 42.0308H76.1182L78.2876 48.318L80.4693 42.0308H82.0679L79.2174 49.8614H77.361H77.3579Z" fill="white"/>
<path d="M86.0969 49.8614V42.0308H91.2519V43.2489H87.6066V45.2956H90.9174V46.4708H87.6066V48.6401H91.2519V49.8583H86.0969V49.8614Z" fill="white"/>
<path d="M98.1374 49.9966C97.5698 49.9966 97.0666 49.8984 96.6216 49.7051C96.1767 49.5118 95.83 49.2265 95.5753 48.8552C95.3206 48.4839 95.1887 48.0298 95.1733 47.502H96.772C96.7781 47.7321 96.8395 47.9408 96.95 48.128C97.0635 48.3151 97.2169 48.4624 97.4133 48.5698C97.6097 48.6772 97.849 48.7324 98.1252 48.7324C98.3645 48.7324 98.5701 48.6926 98.745 48.6158C98.9199 48.5391 99.058 48.4287 99.1592 48.2845C99.2605 48.1433 99.3096 47.9745 99.3096 47.7812C99.3096 47.5572 99.2544 47.3701 99.1408 47.2228C99.0304 47.0724 98.8769 46.9466 98.6867 46.8423C98.4964 46.738 98.2755 46.6429 98.027 46.5569C97.7784 46.471 97.5176 46.382 97.2507 46.293C96.6247 46.0844 96.1522 45.8113 95.83 45.4768C95.5078 45.1424 95.3482 44.6975 95.3482 44.1451C95.3482 43.6757 95.4618 43.2737 95.6827 42.9362C95.9036 42.5987 96.2197 42.344 96.6216 42.166C97.0236 41.988 97.4839 41.896 97.9963 41.896C98.5087 41.896 98.9905 41.988 99.3894 42.1691C99.7883 42.3532 100.104 42.614 100.341 42.9577C100.577 43.3013 100.7 43.7033 100.715 44.1666H99.0917C99.0856 43.9948 99.0334 43.8322 98.9414 43.6788C98.8462 43.5253 98.7204 43.4026 98.5548 43.3105C98.3921 43.2185 98.1957 43.1694 97.9748 43.1694C97.7815 43.1633 97.6035 43.1909 97.444 43.2584C97.2844 43.3259 97.1586 43.4241 97.0696 43.556C96.9806 43.6849 96.9346 43.8475 96.9346 44.0439C96.9346 44.2403 96.9806 44.3876 97.0696 44.5134C97.1586 44.6392 97.2875 44.7496 97.4501 44.8447C97.6127 44.9368 97.8091 45.0227 98.0301 45.1025C98.254 45.1823 98.4965 45.2621 98.7573 45.3418C99.1531 45.4768 99.5121 45.6333 99.8374 45.8174C100.163 46.0015 100.42 46.2378 100.614 46.5293C100.807 46.8208 100.905 47.2044 100.905 47.68C100.905 48.0911 100.798 48.4716 100.586 48.8214C100.374 49.1712 100.061 49.4566 99.6532 49.6714C99.2421 49.8892 98.7358 49.9966 98.1313 49.9966H98.1374Z" fill="white"/>
<path d="M106.935 49.8617V43.2523H104.652V42.0342H110.724V43.2523H108.441V49.8617H106.931H106.935Z" fill="white"/>
<path d="M120.681 49.8614V42.0308H122.191V49.8614H120.681Z" fill="white"/>
<path d="M126.892 49.8614V42.0308H128.401L132.004 47.4343V42.0308H133.513V49.8614H132.004L128.401 44.4702V49.8614H126.892Z" fill="white"/>
<path d="M143.937 49.8614V42.0308H145.446V48.6862H148.88V49.8614H143.937Z" fill="white"/>
<path d="M153.151 49.8614V42.0308H154.661V49.8614H153.151Z" fill="white"/>
<path d="M161.534 49.8614L158.684 42.0308H160.295L162.464 48.318L164.646 42.0308H166.244L163.394 49.8614H161.537H161.534Z" fill="white"/>
<path d="M170.27 49.8614V42.0308H171.78V49.8614H170.27Z" fill="white"/>
<path d="M176.48 49.8614V42.0308H177.99L181.592 47.4343V42.0308H183.102V49.8614H181.592L177.99 44.4702V49.8614H176.48Z" fill="white"/>
<path d="M191.209 49.9969C190.469 49.9969 189.825 49.8312 189.27 49.4998C188.714 49.1684 188.285 48.702 187.978 48.1006C187.671 47.4992 187.518 46.8026 187.518 46.0048C187.518 45.207 187.677 44.489 187.993 43.8753C188.309 43.2617 188.76 42.7768 189.346 42.427C189.932 42.0772 190.635 41.9023 191.454 41.9023C192.378 41.9023 193.145 42.1233 193.753 42.5621C194.36 43.0008 194.753 43.6145 194.931 44.397H193.243C193.13 44.0533 192.924 43.7833 192.617 43.5869C192.31 43.3905 191.921 43.2893 191.442 43.2893C190.936 43.2893 190.503 43.3997 190.15 43.6237C189.797 43.8477 189.524 44.1607 189.34 44.5627C189.153 44.9646 189.061 45.4464 189.061 46.0048C189.061 46.5633 189.153 47.0512 189.334 47.447C189.515 47.8428 189.782 48.1435 190.129 48.346C190.476 48.5516 190.884 48.6529 191.353 48.6529C192.04 48.6529 192.559 48.4688 192.915 48.1006C193.268 47.7324 193.48 47.2537 193.547 46.6645H191.623V45.5354H195.069V49.8649H193.682L193.559 48.8707C193.397 49.1162 193.203 49.3249 192.982 49.4906C192.762 49.6593 192.507 49.7851 192.215 49.871C191.924 49.957 191.589 49.9999 191.209 49.9999V49.9969Z" fill="white"/>
<path d="M96.3395 6.0293H100.62V29.5426H94.4984L75.6337 10.1103V29.5426H71.3533V6.0293H77.4748L96.3395 25.4616V6.0293Z" fill="white"/>
<path d="M114.409 25.7286H132.47V29.5426H110.129V6.0293H114.409V25.7286Z" fill="white"/>
<path d="M190.559 17.7691C190.559 10.2115 195.44 5.36035 205.71 5.36035C215.981 5.36035 220.829 10.2422 220.829 17.7691C220.829 25.2959 215.947 30.2115 205.71 30.2115C195.474 30.2115 190.559 25.3297 190.559 17.7691ZM216.247 17.7691C216.247 11.7151 212.369 9.1744 205.714 9.1744C199.058 9.1744 195.18 11.6844 195.18 17.7691C195.18 23.8538 199.092 26.3975 205.714 26.3975C212.335 26.3975 216.247 23.8231 216.247 17.7691Z" fill="white"/>
<path d="M61.9423 6.0293V29.5426H57.6619V6.0293H61.9423Z" fill="white"/>
<path d="M144.655 6.0293V29.5426H140.374V6.0293H144.655Z" fill="white"/>
<path d="M170.74 29.5426H166.023L152.412 6.0293H157.294L170.74 29.5426Z" fill="white"/>
<path d="M176.606 20.6227L185.054 6.0293H180.206L171.82 20.6227H176.606Z" fill="#77C47D"/>
<path d="M19.3341 0V19.417L0 30.5799V0H19.3341Z" fill="white"/>
<path d="M38.6714 49.9969V30.5799L19.3342 19.417V49.9969H38.6714Z" fill="#77C47D"/>
<path d="M27.6496 44.0901V39.6286H23.1912V36.9254H27.6496V32.4639H30.3559V36.9254H34.8144V39.6286H30.3559V44.0901H27.6496Z" fill="white"/>
</svg>
