<svg width="36" height="38" viewBox="0 0 36 38" fill="none" xmlns="http://www.w3.org/2000/svg">
<path d="M31.6663 15.3564V37.0962H3.42676V15.3564L17.5465 1.15118L31.6663 15.3564Z" fill="url(#paint0_linear_50_104)"/>
<path d="M31.6663 15.3564V37.0962H22.7502L3.42676 17.7727V15.3564L17.5465 1.15118L31.6663 15.3564Z" fill="url(#paint1_linear_50_104)"/>
<path d="M31.667 21.0891L18.2928 7.715C18.1765 7.415 17.8859 7.20203 17.5448 7.20203C17.1015 7.20203 16.742 7.56148 16.742 8.00484V8.24796C16.5604 8.3357 16.3895 8.45296 16.2388 8.60367L8.84164 16.0009C8.52227 16.3202 8.52813 16.8416 8.85938 17.1534L28.8908 37.0957H31.667L31.667 21.0891Z" fill="url(#paint2_linear_50_104)"/>
<path d="M27.3032 37.0962H13.4923L5.90047 29.5043C5.56625 29.2876 5.34375 28.9116 5.34375 28.4851V22.3749C5.34375 21.7055 5.88875 21.1605 6.5582 21.1605H10.9633C11.3907 21.1605 11.7667 21.383 11.9834 21.7172L11.9504 21.7434L27.3032 37.0962Z" fill="url(#paint3_linear_50_104)"/>
<path d="M10.9633 28.9877H6.55863C6.28082 28.9877 6.05566 28.7625 6.05566 28.4847V22.3755C6.05566 22.0977 6.28082 21.8725 6.55863 21.8725H10.9633C11.2411 21.8725 11.4663 22.0977 11.4663 22.3755V28.4847C11.4663 28.7624 11.2411 28.9877 10.9633 28.9877Z" fill="#503837"/>
<path d="M10.9633 29.6996H6.55859C5.88875 29.6996 5.34375 29.1546 5.34375 28.4847V22.3754C5.34375 21.7056 5.88867 21.1606 6.55859 21.1606H10.9633C11.6331 21.1606 12.1781 21.7055 12.1781 22.3754V28.4847C12.1781 29.1546 11.6331 29.6996 10.9633 29.6996ZM6.7675 28.2757H10.7542V22.5844H6.7675V28.2757Z" fill="white"/>
<path d="M31.6669 23.6808V37.0962H31.2335L23.6416 29.5043C23.3064 29.2876 23.084 28.9116 23.084 28.4851V22.3749C23.084 21.7055 23.629 21.1605 24.2995 21.1605H28.7035C29.131 21.1605 29.507 21.383 29.7237 21.7172L29.7412 21.7308L29.7295 21.7434L31.6669 23.6808Z" fill="url(#paint4_linear_50_104)"/>
<path d="M28.7045 28.9877H24.2998C24.022 28.9877 23.7969 28.7625 23.7969 28.4847V22.3755C23.7969 22.0977 24.022 21.8725 24.2998 21.8725H28.7045C28.9823 21.8725 29.2075 22.0977 29.2075 22.3755V28.4847C29.2074 28.7624 28.9823 28.9877 28.7045 28.9877Z" fill="#503837"/>
<path d="M28.7045 29.6996H24.2998C23.63 29.6996 23.085 29.1546 23.085 28.4847V22.3754C23.085 21.7056 23.6299 21.1606 24.2998 21.1606H28.7045C29.3744 21.1606 29.9193 21.7055 29.9193 22.3754V28.4847C29.9193 29.1546 29.3744 29.6996 28.7045 29.6996ZM24.5087 28.2757H28.4954V22.5844H24.5087V28.2757Z" fill="white"/>
<path d="M34.8597 17.3203L18.3967 0.851975C17.9275 0.382756 17.1666 0.382756 16.6974 0.851975L0.230215 17.319C-0.0767383 17.626 -0.0767383 18.1237 0.230215 18.4307L0.932012 19.1325C1.23896 19.4395 1.7367 19.4395 2.04373 19.1325L17.3233 3.85307C17.4469 3.72955 17.6472 3.72955 17.7707 3.85307L33.0462 19.1338C33.3531 19.4408 33.8508 19.4408 34.1579 19.1338L34.8597 18.4321C35.1667 18.125 35.1667 17.6274 34.8597 17.3203Z" fill="url(#paint5_linear_50_104)"/>
<path d="M18.3965 0.851953C18.1618 0.617266 17.8544 0.5 17.5469 0.5V3.76039C17.6278 3.76039 17.7088 3.79133 17.7705 3.85305L33.046 19.1338C33.353 19.4408 33.8507 19.4408 34.1577 19.1338L34.8595 18.432C35.1665 18.1251 35.1665 17.6273 34.8595 17.3203L18.3965 0.851953Z" fill="url(#paint6_linear_50_104)"/>
<path d="M14.6045 37.0958V23.3794C14.6045 21.7542 15.922 20.4368 17.5471 20.4368C19.1722 20.4368 20.4896 21.7543 20.4896 23.3794V37.0958H14.6045Z" fill="#816965"/>
<path d="M21.2186 37.0958H19.7612V23.3628C19.7612 22.1542 18.7725 21.1654 17.5639 21.1654H17.5307C16.3171 21.1654 15.3333 22.1492 15.3333 23.3628V37.0957H13.876V23.3794C13.876 21.3518 15.5196 19.7081 17.5473 19.7081C19.5749 19.7081 21.2186 21.3517 21.2186 23.3794L21.2186 37.0958Z" fill="#503837"/>
<path d="M16.5023 26.8916C16.8693 26.8916 17.1668 26.5942 17.1668 26.2272C17.1668 25.8602 16.8693 25.5627 16.5023 25.5627C16.1354 25.5627 15.8379 25.8602 15.8379 26.2272C15.8379 26.5942 16.1354 26.8916 16.5023 26.8916Z" fill="white"/>
<path d="M31.6668 33.2084H3.42676V37.0961H31.6668V33.2084Z" fill="url(#paint7_linear_50_104)"/>
<path d="M8.29961 35.5766C8.29961 36.1132 8.19812 36.6252 8.01289 37.0958H0.286719C0.101485 36.6252 0 36.1132 0 35.5766C0 35.0542 0.0963282 34.5548 0.272734 34.0946C0.869297 32.534 2.38023 31.4269 4.14984 31.4269C5.91945 31.4269 7.43039 32.534 8.02695 34.0946C8.20328 34.5548 8.29961 35.0542 8.29961 35.5766Z" fill="url(#paint8_linear_50_104)"/>
<path d="M10.9756 35.9938C10.9756 36.3829 10.902 36.7544 10.7677 37.0957H5.16305C5.02867 36.7544 4.95508 36.3829 4.95508 35.9938C4.95508 35.6148 5.02492 35.2525 5.15289 34.9186C5.58562 33.7865 6.68164 32.9834 7.96539 32.9834C9.24914 32.9834 10.3452 33.7865 10.7779 34.9186C10.9057 35.2525 10.9756 35.6149 10.9756 35.9938Z" fill="url(#paint9_linear_50_104)"/>
<path d="M10.8008 15.4981L17.5447 8.75421L24.2886 15.4981H10.8008Z" fill="#503837"/>
<path d="M17.545 16.4081C17.1016 16.4081 16.7422 16.0486 16.7422 15.6053V8.00496C16.7422 7.5616 17.1016 7.20215 17.545 7.20215C17.9884 7.20215 18.3478 7.5616 18.3478 8.00496V15.6053C18.3478 16.0486 17.9884 16.4081 17.545 16.4081Z" fill="url(#paint10_linear_50_104)"/>
<path d="M10.587 15.0164H24.5031C24.9464 15.0164 25.3059 15.3759 25.3059 15.8192C25.3059 16.2626 24.9464 16.622 24.5031 16.622H10.587C10.1436 16.622 9.78418 16.2626 9.78418 15.8192C9.78418 15.3759 10.1436 15.0164 10.587 15.0164Z" fill="url(#paint11_linear_50_104)"/>
<path d="M25.6804 17.3715C25.4749 17.3715 25.2694 17.293 25.1127 17.1363L18.1605 10.1841C17.8205 9.84413 17.2692 9.84413 16.9291 10.1841L10.0008 17.1124C9.68997 17.4233 9.17935 17.4548 8.85935 17.1535C8.52818 16.8416 8.52224 16.3202 8.84161 16.0009L16.2388 8.60374C16.9601 7.88241 18.1297 7.88241 18.8509 8.60374L26.2481 16.0009C26.5617 16.3144 26.5617 16.8228 26.2481 17.1363C26.0913 17.293 25.8858 17.3715 25.6804 17.3715Z" fill="url(#paint12_linear_50_104)"/>
<path d="M26.2477 17.136C26.0913 17.2933 25.8859 17.3715 25.6803 17.3715C25.4748 17.3715 25.2692 17.2934 25.113 17.136L18.3477 10.3717V8.24573C18.5296 8.33346 18.6998 8.45229 18.8508 8.60331L26.2477 16.0013C26.5613 16.3149 26.5613 16.8223 26.2477 17.136Z" fill="url(#paint13_linear_50_104)"/>
<path d="M35.0897 35.3249C35.0897 35.9503 34.9714 36.5472 34.7554 37.0958H25.7493C25.5334 36.5473 25.415 35.9504 25.415 35.3249C25.415 34.716 25.5274 34.1337 25.7329 33.5974C26.4283 31.7781 28.1896 30.4877 30.2524 30.4877C32.3152 30.4877 34.0764 31.7782 34.7718 33.5974C34.9775 34.1338 35.0897 34.716 35.0897 35.3249Z" fill="url(#paint14_linear_50_104)"/>
<path d="M18.851 8.60367C18.7003 8.45296 18.5294 8.3357 18.3478 8.24796V8.00484C18.3478 7.56148 17.9883 7.20203 17.5449 7.20203C17.1016 7.20203 16.7421 7.56148 16.7421 8.00484V8.24796C16.5605 8.3357 16.3896 8.45296 16.2389 8.60367L13.0552 11.7874L14.1906 12.9228L16.7422 10.3712V15.0162H16.2842L17.8899 16.6219H24.5031C24.5337 16.6219 24.5637 16.6199 24.5934 16.6166L25.1129 17.1361C25.2697 17.2929 25.4751 17.3712 25.6806 17.3712C25.886 17.3712 26.0915 17.2928 26.2482 17.1361C26.5618 16.8226 26.5618 16.3142 26.2482 16.0007L18.851 8.60367ZM18.3478 15.0164V10.3713L22.9928 15.0164H18.3478Z" fill="url(#paint15_linear_50_104)"/>
<defs>
<linearGradient id="paint0_linear_50_104" x1="17.5461" y1="19.3734" x2="17.5461" y2="44.8184" gradientUnits="userSpaceOnUse">
<stop stop-color="#FFE7A5"/>
<stop offset="0.966" stop-color="#FFBF5C"/>
</linearGradient>
<linearGradient id="paint1_linear_50_104" x1="14.4273" y1="13.4035" x2="5.38041" y2="4.35659" gradientUnits="userSpaceOnUse">
<stop stop-color="#FF5D00" stop-opacity="0"/>
<stop offset="1" stop-color="#D54003"/>
</linearGradient>
<linearGradient id="paint2_linear_50_104" x1="20.1476" y1="18.9585" x2="5.75808" y2="4.56897" gradientUnits="userSpaceOnUse">
<stop stop-color="#FF5D00" stop-opacity="0"/>
<stop offset="1" stop-color="#D54003"/>
</linearGradient>
<linearGradient id="paint3_linear_50_104" x1="14.6773" y1="31.3466" x2="1.93798" y2="18.6073" gradientUnits="userSpaceOnUse">
<stop stop-color="#FF5D00" stop-opacity="0"/>
<stop offset="1" stop-color="#D54003"/>
</linearGradient>
<linearGradient id="paint4_linear_50_104" x1="29.8967" y1="28.826" x2="21.7401" y2="20.6693" gradientUnits="userSpaceOnUse">
<stop stop-color="#FF5D00" stop-opacity="0"/>
<stop offset="1" stop-color="#D54003"/>
</linearGradient>
<linearGradient id="paint5_linear_50_104" x1="17.6956" y1="17.5087" x2="11.814" y2="31.808" gradientUnits="userSpaceOnUse">
<stop stop-color="#816965"/>
<stop offset="1" stop-color="#654E48"/>
</linearGradient>
<linearGradient id="paint6_linear_50_104" x1="29.4725" y1="13.8067" x2="23.3338" y2="7.66883" gradientUnits="userSpaceOnUse">
<stop stop-color="#654E48" stop-opacity="0"/>
<stop offset="1" stop-color="#503837"/>
</linearGradient>
<linearGradient id="paint7_linear_50_104" x1="3.42665" y1="35.1523" x2="31.666" y2="35.1523" gradientUnits="userSpaceOnUse">
<stop stop-color="#816965"/>
<stop offset="1" stop-color="#654E48"/>
</linearGradient>
<linearGradient id="paint8_linear_50_104" x1="1.80934" y1="32.9934" x2="6.93001" y2="38.1132" gradientUnits="userSpaceOnUse">
<stop stop-color="#9EB644"/>
<stop offset="1" stop-color="#738611"/>
</linearGradient>
<linearGradient id="paint9_linear_50_104" x1="6.26741" y1="34.1196" x2="9.98184" y2="37.834" gradientUnits="userSpaceOnUse">
<stop stop-color="#9EB644"/>
<stop offset="1" stop-color="#738611"/>
</linearGradient>
<linearGradient id="paint10_linear_50_104" x1="15.5408" y1="8.66928" x2="9.65921" y2="-0.536802" gradientUnits="userSpaceOnUse">
<stop stop-color="#816965"/>
<stop offset="1" stop-color="#654E48"/>
</linearGradient>
<linearGradient id="paint11_linear_50_104" x1="4.61059" y1="19.3519" x2="-1.27101" y2="20.9582" gradientUnits="userSpaceOnUse">
<stop stop-color="#816965"/>
<stop offset="1" stop-color="#654E48"/>
</linearGradient>
<linearGradient id="paint12_linear_50_104" x1="13.8789" y1="10.7677" x2="7.99728" y2="1.45889" gradientUnits="userSpaceOnUse">
<stop stop-color="#816965"/>
<stop offset="1" stop-color="#654E48"/>
</linearGradient>
<linearGradient id="paint13_linear_50_104" x1="25.0787" y1="13.8951" x2="-1.25018" y2="4.76976" gradientUnits="userSpaceOnUse">
<stop stop-color="#654E48" stop-opacity="0"/>
<stop offset="1" stop-color="#503837"/>
</linearGradient>
<linearGradient id="paint14_linear_50_104" x1="27.5238" y1="32.3135" x2="33.4923" y2="38.282" gradientUnits="userSpaceOnUse">
<stop stop-color="#9EB644"/>
<stop offset="1" stop-color="#738611"/>
</linearGradient>
<linearGradient id="paint15_linear_50_104" x1="23.8736" y1="17.903" x2="16.0126" y2="10.042" gradientUnits="userSpaceOnUse">
<stop stop-color="#654E48" stop-opacity="0"/>
<stop offset="1" stop-color="#503837"/>
</linearGradient>
</defs>
</svg>
