<svg width="80" height="80" viewBox="0 0 80 80" fill="none" xmlns="http://www.w3.org/2000/svg">
<g clip-path="url(#clip0_50_800)">
<path d="M80 42.5V51.875L76.7657 55.8124H58.7653L56.5625 51.875V42.5L62.1405 37.3908C61.9061 37.1564 64.8126 37.3908 68.2812 37.7185C72.9218 38.1873 78.5468 38.8434 78.5468 38.8434L80 42.5Z" fill="#FF9F00"/>
<path d="M80 42.5002V51.8752L76.7657 55.8126H68.2812V37.7188C72.9218 38.1875 78.5468 38.8436 78.5468 38.8436L80 42.5002Z" fill="#FF7816"/>
<path d="M70.4688 2.34375V11.7188C70.4688 13.031 69.4379 14.0625 68.125 14.0625C66.8121 14.0625 65.7812 13.031 65.7812 11.7188V8.01575L41.6406 32.2656C41.2189 32.7344 40.6091 32.9688 40 32.9688C39.3909 32.9688 38.7811 32.7344 38.3594 32.2656L30.625 24.5782L13.5156 41.6406C13.0939 42.1094 12.4841 42.3438 11.875 42.3438C11.2659 42.3438 10.6561 42.1094 10.2344 41.6406C9.29688 40.7501 9.29688 39.2499 10.2344 38.3594L28.9844 19.6094C29.8749 18.6719 31.3751 18.6719 32.2656 19.6094L40 27.2968L62.453 4.6875H58.75C57.4371 4.6875 56.4062 3.65601 56.4062 2.34375C56.4062 1.03088 57.4371 0 58.75 0H68.125C69.4379 0 70.4688 1.03088 70.4688 2.34375Z" fill="#E63950"/>
<path d="M23.4375 63.5942V70.6255C23.4375 70.6255 14.953 75.0316 14.4843 75.0316C14.2969 75.0316 13.078 75.0786 11.7188 75.1256C9.75037 75.1256 7.453 75.172 7.453 75.172L0 70.6255V63.5942C0 62.2814 1.03088 61.2505 2.34375 61.2505H21.0938C22.4066 61.2505 23.4375 62.2814 23.4375 63.5942Z" fill="#FF9F00"/>
<path d="M51.7188 61.2504V70.6254L48.2031 75.5942H33.3905L28.2812 70.6254V61.2504L32.406 58.7656H47.453L51.7188 61.2504Z" fill="#FF9F00"/>
<path d="M80 61.2502V70.6252L77.3749 74.2812H61.109L56.5625 70.6252V61.2502L59.6564 58.3438H76.0626L80 61.2502Z" fill="#FF9F00"/>
<path d="M70.4688 2.34375V11.7188C70.4688 13.031 69.4379 14.0625 68.125 14.0625C66.8121 14.0625 65.7812 13.031 65.7812 11.7188V8.01575L41.6406 32.2656C41.2189 32.7344 40.6091 32.9688 40 32.9688V27.2968L62.453 4.6875H58.75C57.4371 4.6875 56.4062 3.65601 56.4062 2.34375C56.4062 1.03088 57.4371 0 58.75 0H68.125C69.4379 0 70.4688 1.03088 70.4688 2.34375Z" fill="#CC2E43"/>
<path d="M51.7188 61.2499V70.6249L48.2031 75.5938H40V58.7651H47.453L51.7188 61.2499Z" fill="#FF7816"/>
<path d="M76.0626 58.3438L80 61.2502V70.6252L77.3749 74.2812H68.2812V58.3438H76.0626Z" fill="#FF7816"/>
<path d="M23.4375 63.5938V70.625C23.4375 70.625 14.953 75.0311 14.4843 75.0311C14.2969 75.0311 13.078 75.0781 11.7188 75.1251V61.25H21.0938C22.4066 61.25 23.4375 62.2809 23.4375 63.5938Z" fill="#FF7816"/>
<path d="M80 70.625V77.6562C80 78.9685 78.9691 80 77.6562 80H58.9062C57.5934 80 56.5625 78.9685 56.5625 77.6562V70.625H80Z" fill="#FFD400"/>
<path d="M51.7188 70.625V77.6562C51.7188 78.9685 50.6879 80 49.375 80H30.625C29.3121 80 28.2812 78.9685 28.2812 77.6562V70.625H51.7188Z" fill="#FFD400"/>
<path d="M23.4375 70.625V77.6562C23.4375 78.9685 22.4066 80 21.0938 80H2.34375C1.03088 80 0 78.9685 0 77.6562V70.625H23.4375Z" fill="#FFD400"/>
<path d="M40 70.625H51.7188V77.6562C51.7188 78.9685 50.6879 80 49.375 80H40V70.625Z" fill="#FDBF00"/>
<path d="M68.2812 70.625H80V77.6562C80 78.9685 78.9691 80 77.6562 80H68.2812V70.625Z" fill="#FDBF00"/>
<path d="M23.4375 70.625V77.6562C23.4375 78.9685 22.4066 80 21.0938 80H11.7188V70.625H23.4375Z" fill="#FDBF00"/>
<path d="M56.5625 51.875H80V61.25H56.5625V51.875Z" fill="#FFD400"/>
<path d="M51.7188 54.2188V61.25H28.2812V54.2188C28.2812 52.9059 29.3121 51.875 30.625 51.875H49.375C50.6879 51.875 51.7188 52.9059 51.7188 54.2188Z" fill="#FFD400"/>
<path d="M51.7188 54.2188V61.25H40V51.875H49.375C50.6879 51.875 51.7188 52.9059 51.7188 54.2188Z" fill="#FDBF00"/>
<path d="M68.2812 51.875H80V61.25H68.2812V51.875Z" fill="#FDBF00"/>
<path d="M80 33.125V42.5H56.5625V33.125C56.5625 31.8121 57.5934 30.7812 58.9062 30.7812H77.6562C78.9691 30.7812 80 31.8121 80 33.125Z" fill="#FFD400"/>
<path d="M80 33.125V42.5H68.2812V30.7812H77.6562C78.9691 30.7812 80 31.8121 80 33.125Z" fill="#FDBF00"/>
</g>
<defs>
<clipPath id="clip0_50_800">
<rect width="80" height="80" fill="white"/>
</clipPath>
</defs>
</svg>
