<svg width="80" height="80" viewBox="0 0 80 80" fill="none" xmlns="http://www.w3.org/2000/svg">
<g clip-path="url(#clip0_50_782)">
<path d="M80 61.0938L75.3125 65.7812H4.6875L0 61.0938L8.85925 34.4061C9.14062 33.4686 10.0781 32.8125 11.0626 32.8125H68.9374C69.9219 32.8125 70.8594 33.4686 71.1407 34.4061L80 61.0938Z" fill="#B1EFAF"/>
<path d="M80 61.0938L75.3125 65.7812H40V32.8125H68.9374C69.9219 32.8125 70.8594 33.4686 71.1407 34.4061L80 61.0938Z" fill="#91EB90"/>
<path d="M61.0938 49.375C61.0938 50.6873 60.0629 51.7188 58.75 51.7188H21.25C19.9371 51.7188 18.9062 50.6873 18.9062 49.375C18.9062 48.0621 19.9371 47.0312 21.25 47.0312H58.75C60.0629 47.0312 61.0938 48.0621 61.0938 49.375Z" fill="#61729B"/>
<path d="M40 0C28.3752 0 18.9062 9.46899 18.9062 21.0938C18.9062 32.7185 28.3752 42.1875 40 42.1875C51.6248 42.1875 61.0938 32.7185 61.0938 21.0938C61.0938 9.46899 51.6248 0 40 0Z" fill="#FFDA2D"/>
<path d="M61.0938 21.0938C61.0938 32.7185 51.6248 42.1875 40 42.1875V0C51.6248 0 61.0938 9.46899 61.0938 21.0938Z" fill="#FDBF00"/>
<path d="M40 4.6875C30.9534 4.6875 23.5938 12.0471 23.5938 21.0938C23.5938 30.1404 30.9534 37.5 40 37.5C49.0466 37.5 56.4062 30.1404 56.4062 21.0938C56.4062 12.0471 49.0466 4.6875 40 4.6875Z" fill="#FDBF00"/>
<path d="M56.4062 21.0938C56.4062 30.1404 49.0466 37.5 40 37.5V4.6875C49.0466 4.6875 56.4062 12.0471 56.4062 21.0938Z" fill="#FF9100"/>
<path d="M47.0312 25.7812C47.0312 28.8281 45.0629 31.4062 42.3438 32.3907V39.8438C42.3438 41.1566 41.3129 42.1875 40 42.1875C38.6871 42.1875 37.6562 41.1566 37.6562 39.8438V32.3907C34.9371 31.4062 32.9688 28.8281 32.9688 25.7812C32.9688 24.4684 33.9996 23.4375 35.3125 23.4375C36.6254 23.4375 37.6562 24.4684 37.6562 25.7812C37.6562 27.0941 38.6871 28.125 40 28.125C41.3129 28.125 42.3438 27.0941 42.3438 25.7812C42.3438 24.4684 41.3129 23.4375 40 23.4375C36.109 23.4375 32.9688 20.2972 32.9688 16.4062C32.9688 13.3594 34.9371 10.7812 37.6562 9.79675V2.34375C37.6562 1.03088 38.6871 0 40 0C41.3129 0 42.3438 1.03088 42.3438 2.34375V9.79675C45.0629 10.7812 47.0312 13.3594 47.0312 16.4062C47.0312 17.7191 46.0004 18.75 44.6875 18.75C43.3746 18.75 42.3438 17.7191 42.3438 16.4062C42.3438 15.0934 41.3129 14.0625 40 14.0625C38.6871 14.0625 37.6562 15.0934 37.6562 16.4062C37.6562 17.7191 38.6871 18.75 40 18.75C43.891 18.75 47.0312 21.8903 47.0312 25.7812Z" fill="#FFDA2D"/>
<path d="M40 14.0625V0C41.3129 0 42.3438 1.03088 42.3438 2.34375V9.79675C45.0629 10.7812 47.0312 13.3594 47.0312 16.4062C47.0312 17.7191 46.0004 18.75 44.6875 18.75C43.3746 18.75 42.3438 17.7191 42.3438 16.4062C42.3438 15.0934 41.3129 14.0625 40 14.0625Z" fill="#FDBF00"/>
<path d="M47.0312 25.7812C47.0312 28.8281 45.0629 31.4062 42.3438 32.3907V39.8438C42.3438 41.1566 41.3129 42.1875 40 42.1875V28.125C41.3129 28.125 42.3438 27.0941 42.3438 25.7812C42.3438 24.4684 41.3129 23.4375 40 23.4375V18.75C43.891 18.75 47.0312 21.8903 47.0312 25.7812Z" fill="#FDBF00"/>
<path d="M58.75 51.7188H40V47.0312H58.75C60.0629 47.0312 61.0938 48.0621 61.0938 49.375C61.0938 50.6873 60.0629 51.7188 58.75 51.7188Z" fill="#47568C"/>
<path d="M80 61.0938V77.6563C80 78.9685 78.9691 80 77.6562 80H2.34375C1.03088 80 0 78.9685 0 77.6563V61.0938H80Z" fill="#7FE881"/>
<path d="M80 61.0938V77.6563C80 78.9685 78.9691 80 77.6562 80H40V61.0938H80Z" fill="#5BC980"/>
</g>
<defs>
<clipPath id="clip0_50_782">
<rect width="80" height="80" fill="white"/>
</clipPath>
</defs>
</svg>
