<svg width="80" height="80" viewBox="0 0 80 80" fill="none" xmlns="http://www.w3.org/2000/svg">
<g clip-path="url(#clip0_50_733)">
<path d="M18.2984 38.6138H8.76315C8.46393 38.6138 8.22144 38.8563 8.22144 39.1555V45.5003C8.22144 45.7995 8.46393 46.042 8.76315 46.042H18.2984C18.5977 46.042 18.8402 45.7995 18.8402 45.5003V39.1555C18.8402 38.8563 18.5977 38.6138 18.2984 38.6138Z" fill="#55A2F0"/>
<path d="M18.2986 38.6138H13.5339V46.042H18.2986C18.5978 46.042 18.8403 45.7995 18.8403 45.5003V39.1555C18.8403 38.8563 18.5978 38.6138 18.2986 38.6138Z" fill="#4B9EE2"/>
<path d="M62.9852 9.11523C62.329 9.11523 61.7971 9.64711 61.7971 10.3034V22.2713C61.7971 22.9276 62.329 23.4594 62.9852 23.4594C63.6415 23.4594 64.1734 22.9276 64.1734 22.2713V10.3034C64.1734 9.64726 63.6415 9.11523 62.9852 9.11523Z" fill="#2D5872"/>
<path d="M64.9846 26.7921H60.9859C60.296 26.7921 59.7368 26.2329 59.7368 25.5431V21.1734C59.7368 20.4835 60.296 19.9243 60.9859 19.9243H64.9846C65.6745 19.9243 66.2337 20.4835 66.2337 21.1734V25.5431C66.2337 26.2329 65.6745 26.7921 64.9846 26.7921Z" fill="#FF4C4C"/>
<path d="M70.6275 39.4602H55.3428C54.6856 39.4602 54.1528 38.9274 54.1528 38.2703V26.7338C54.1528 26.0766 54.6856 25.5439 55.3428 25.5439H70.6275C71.2847 25.5439 71.8173 26.0768 71.8173 26.7338V38.2703C71.8173 38.9274 71.2847 39.4602 70.6275 39.4602Z" fill="#F33A3A"/>
<path d="M75.5229 79.9998H48.7019V31.2388H74.8644C75.2281 31.2388 75.5229 31.5336 75.5229 31.8974V79.9998Z" fill="#FF4C4C"/>
<path d="M74.8645 31.2388H67.5793C67.9431 31.2388 68.2379 31.5336 68.2379 31.8974V79.9998H75.5231V31.8974C75.5231 31.5336 75.2282 31.2388 74.8645 31.2388Z" fill="#F33A3A"/>
<path d="M70.5071 42.8617H55.1381C54.594 42.8617 54.1531 42.4206 54.1531 41.8767V39.5988C54.1531 39.0547 54.5942 38.6138 55.1381 38.6138H70.5071C71.0512 38.6138 71.4921 39.0549 71.4921 39.5988V41.8767C71.4921 42.4206 71.0512 42.8617 70.5071 42.8617Z" fill="#E1EFFB"/>
<path d="M70.5071 52.601H55.1381C54.594 52.601 54.1531 52.1599 54.1531 51.616V49.338C54.1531 48.794 54.5942 48.353 55.1381 48.353H70.5071C71.0512 48.353 71.4921 48.7941 71.4921 49.338V51.616C71.4921 52.1599 71.0512 52.601 70.5071 52.601Z" fill="#E1EFFB"/>
<path d="M70.5071 62.3402H55.1381C54.594 62.3402 54.1531 61.8992 54.1531 61.3552V59.0773C54.1531 58.5332 54.5942 58.0923 55.1381 58.0923H70.5071C71.0512 58.0923 71.4921 58.5334 71.4921 59.0773V61.3552C71.4921 61.8992 71.0512 62.3402 70.5071 62.3402Z" fill="#E1EFFB"/>
<path d="M70.5071 72.08H55.1381C54.594 72.08 54.1531 71.6389 54.1531 71.095V68.817C54.1531 68.273 54.5942 67.832 55.1381 67.832H70.5071C71.0512 67.832 71.4921 68.2731 71.4921 68.817V71.095C71.4921 71.6391 71.0512 72.08 70.5071 72.08Z" fill="#E1EFFB"/>
<path d="M55.6747 79.9999H24.7029C24.2076 79.9999 23.8062 79.5985 23.8062 79.1032V2.33129C23.8062 1.83598 24.2076 1.43457 24.7029 1.43457H55.6747C56.17 1.43457 56.5714 1.83598 56.5714 2.33129V79.1032C56.5714 79.5985 56.17 79.9999 55.6747 79.9999Z" fill="#FFB125"/>
<path d="M55.6748 1.43457H48.3896C48.885 1.43457 49.2864 1.83598 49.2864 2.33129V79.1032C49.2864 79.5985 48.885 79.9999 48.3896 79.9999H55.6748C56.1701 79.9999 56.5715 79.5985 56.5715 79.1032V2.33129C56.5715 1.83598 56.1699 1.43457 55.6748 1.43457Z" fill="#FF901D"/>
<path d="M57.9793 0H22.0206C21.7748 0 21.5754 0.199218 21.5754 0.445155V3.46327C21.5754 3.70906 21.7747 3.90843 22.0206 3.90843H57.9793C58.2251 3.90843 58.4244 3.70921 58.4244 3.46327V0.445155C58.4244 0.199218 58.2251 0 57.9793 0Z" fill="#FF901D"/>
<path d="M32.7913 14.6716H28.434C28.1271 14.6716 27.8782 14.4229 27.8782 14.1158V8.79553C27.8782 8.48865 28.1269 8.23975 28.434 8.23975H32.7913C33.0982 8.23975 33.3471 8.4885 33.3471 8.79553V14.116C33.3471 14.4229 33.0982 14.6716 32.7913 14.6716Z" fill="#E1EFFB"/>
<path d="M42.3675 14.6716H38.0101C37.7033 14.6716 37.4543 14.4229 37.4543 14.1158V8.79553C37.4543 8.48865 37.7031 8.23975 38.0101 8.23975H42.3675C42.6743 8.23975 42.9232 8.4885 42.9232 8.79553V14.116C42.9231 14.4229 42.6743 14.6716 42.3675 14.6716Z" fill="#E1EFFB"/>
<path d="M51.9436 14.6716H47.5863C47.2794 14.6716 47.0305 14.4229 47.0305 14.1158V8.79553C47.0305 8.48865 47.2793 8.23975 47.5863 8.23975H51.9436C52.2505 8.23975 52.4994 8.4885 52.4994 8.79553V14.116C52.4994 14.4229 52.2507 14.6716 51.9436 14.6716Z" fill="#E1EFFB"/>
<path d="M32.7913 29.0238H28.434C28.1271 29.0238 27.8782 28.7751 27.8782 28.468V23.1476C27.8782 22.8407 28.1269 22.5918 28.434 22.5918H32.7913C33.0982 22.5918 33.3471 22.8405 33.3471 23.1476V28.468C33.3471 28.7751 33.0982 29.0238 32.7913 29.0238Z" fill="#E1EFFB"/>
<path d="M42.3675 29.0238H38.0101C37.7033 29.0238 37.4543 28.7751 37.4543 28.468V23.1476C37.4543 22.8407 37.7031 22.5918 38.0101 22.5918H42.3675C42.6743 22.5918 42.9232 22.8405 42.9232 23.1476V28.468C42.9231 28.7751 42.6743 29.0238 42.3675 29.0238Z" fill="#E1EFFB"/>
<path d="M51.9436 29.0238H47.5863C47.2794 29.0238 47.0305 28.7751 47.0305 28.468V23.1476C47.0305 22.8407 47.2793 22.5918 47.5863 22.5918H51.9436C52.2505 22.5918 52.4994 22.8405 52.4994 23.1476V28.468C52.4994 28.7751 52.2507 29.0238 51.9436 29.0238Z" fill="#E1EFFB"/>
<path d="M32.7913 43.3754H28.434C28.1271 43.3754 27.8782 43.1266 27.8782 42.8196V37.4991C27.8782 37.1923 28.1269 36.9434 28.434 36.9434H32.7913C33.0982 36.9434 33.3471 37.1921 33.3471 37.4991V42.8196C33.3471 43.1266 33.0982 43.3754 32.7913 43.3754Z" fill="#E1EFFB"/>
<path d="M42.3675 43.3754H38.0101C37.7033 43.3754 37.4543 43.1266 37.4543 42.8196V37.4991C37.4543 37.1923 37.7031 36.9434 38.0101 36.9434H42.3675C42.6743 36.9434 42.9232 37.1921 42.9232 37.4991V42.8196C42.9231 43.1266 42.6743 43.3754 42.3675 43.3754Z" fill="#E1EFFB"/>
<path d="M51.9436 43.3754H47.5863C47.2794 43.3754 47.0305 43.1266 47.0305 42.8196V37.4991C47.0305 37.1923 47.2793 36.9434 47.5863 36.9434H51.9436C52.2505 36.9434 52.4994 37.1921 52.4994 37.4991V42.8196C52.4994 43.1266 52.2507 43.3754 51.9436 43.3754Z" fill="#E1EFFB"/>
<path d="M42.3675 57.7274H38.0101C37.7033 57.7274 37.4543 57.4787 37.4543 57.1716V51.8512C37.4543 51.5443 37.7031 51.2954 38.0101 51.2954H42.3675C42.6743 51.2954 42.9232 51.5442 42.9232 51.8512V57.1716C42.9231 57.4787 42.6743 57.7274 42.3675 57.7274Z" fill="#E1EFFB"/>
<path d="M51.9436 57.7274H47.5863C47.2794 57.7274 47.0305 57.4787 47.0305 57.1716V51.8512C47.0305 51.5443 47.2793 51.2954 47.5863 51.2954H51.9436C52.2505 51.2954 52.4994 51.5442 52.4994 51.8512V57.1716C52.4994 57.4787 52.2507 57.7274 51.9436 57.7274Z" fill="#E1EFFB"/>
<path d="M42.3675 72.0795H38.0101C37.7033 72.0795 37.4543 71.8307 37.4543 71.5237V66.2032C37.4543 65.8964 37.7031 65.6475 38.0101 65.6475H42.3675C42.6743 65.6475 42.9232 65.8962 42.9232 66.2032V71.5237C42.9231 71.8307 42.6743 72.0795 42.3675 72.0795Z" fill="#E1EFFB"/>
<path d="M51.9436 72.0795H47.5863C47.2794 72.0795 47.0305 71.8307 47.0305 71.5237V66.2032C47.0305 65.8964 47.2793 65.6475 47.5863 65.6475H51.9436C52.2505 65.6475 52.4994 65.8962 52.4994 66.2032V71.5237C52.4994 71.8307 52.2507 72.0795 51.9436 72.0795Z" fill="#E1EFFB"/>
<path d="M38.1136 79.9998H5.16165C4.78337 79.9998 4.47681 79.6932 4.47681 79.3149V44.4036C4.47681 44.0253 4.78337 43.7188 5.16165 43.7188H38.1136C38.4919 43.7188 38.7985 44.0253 38.7985 44.4036V79.3151C38.7985 79.6932 38.4919 79.9998 38.1136 79.9998Z" fill="#61AFF6"/>
<path d="M38.1137 43.7188H30.6975C31.0758 43.7188 31.3824 44.0253 31.3824 44.4036V79.3151C31.3824 79.6934 31.0758 79.9999 30.6975 79.9999H38.1137C38.4919 79.9999 38.7986 79.6934 38.7986 79.3151V44.4036C38.7986 44.0253 38.492 43.7188 38.1137 43.7188Z" fill="#55A2F0"/>
<path d="M13.5338 53.6207H9.22119C8.8415 53.6207 8.53369 53.3129 8.53369 52.9332V50.1865C8.53369 49.8068 8.8415 49.499 9.22119 49.499H13.5338C13.9135 49.499 14.2213 49.8068 14.2213 50.1865V52.9332C14.2213 53.3129 13.9135 53.6207 13.5338 53.6207Z" fill="#E1EFFB"/>
<path d="M23.5731 53.6207H19.2605C18.8808 53.6207 18.573 53.3129 18.573 52.9332V50.1865C18.573 49.8068 18.8808 49.499 19.2605 49.499H23.5731C23.9528 49.499 24.2606 49.8068 24.2606 50.1865V52.9332C24.2606 53.3129 23.9528 53.6207 23.5731 53.6207Z" fill="#E1EFFB"/>
<path d="M33.6125 53.6207H29.2998C28.9201 53.6207 28.6123 53.3129 28.6123 52.9332V50.1865C28.6123 49.8068 28.9201 49.499 29.2998 49.499H33.6125C33.9921 49.499 34.3 49.8068 34.3 50.1865V52.9332C34.3 53.3129 33.9921 53.6207 33.6125 53.6207Z" fill="#E1EFFB"/>
<path d="M13.5338 63.2614H9.22119C8.8415 63.2614 8.53369 62.9535 8.53369 62.5739V59.8272C8.53369 59.4475 8.8415 59.1396 9.22119 59.1396H13.5338C13.9135 59.1396 14.2213 59.4475 14.2213 59.8272V62.5739C14.2213 62.9535 13.9135 63.2614 13.5338 63.2614Z" fill="#E1EFFB"/>
<path d="M23.5731 63.2614H19.2605C18.8808 63.2614 18.573 62.9535 18.573 62.5739V59.8272C18.573 59.4475 18.8808 59.1396 19.2605 59.1396H23.5731C23.9528 59.1396 24.2606 59.4475 24.2606 59.8272V62.5739C24.2606 62.9535 23.9528 63.2614 23.5731 63.2614Z" fill="#E1EFFB"/>
<path d="M33.6125 63.2614H29.2998C28.9201 63.2614 28.6123 62.9535 28.6123 62.5739V59.8272C28.6123 59.4475 28.9201 59.1396 29.2998 59.1396H33.6125C33.9921 59.1396 34.3 59.4475 34.3 59.8272V62.5739C34.3 62.9535 33.9921 63.2614 33.6125 63.2614Z" fill="#E1EFFB"/>
<path d="M13.5338 72.9015H9.22119C8.8415 72.9015 8.53369 72.5937 8.53369 72.214V69.4673C8.53369 69.0876 8.8415 68.7798 9.22119 68.7798H13.5338C13.9135 68.7798 14.2213 69.0876 14.2213 69.4673V72.214C14.2213 72.5937 13.9135 72.9015 13.5338 72.9015Z" fill="#E1EFFB"/>
<path d="M23.5731 72.9015H19.2605C18.8808 72.9015 18.573 72.5937 18.573 72.214V69.4673C18.573 69.0876 18.8808 68.7798 19.2605 68.7798H23.5731C23.9528 68.7798 24.2606 69.0876 24.2606 69.4673V72.214C24.2606 72.5937 23.9528 72.9015 23.5731 72.9015Z" fill="#E1EFFB"/>
<path d="M33.6125 72.9015H29.2998C28.9201 72.9015 28.6123 72.5937 28.6123 72.214V69.4673C28.6123 69.0876 28.9201 68.7798 29.2998 68.7798H33.6125C33.9921 68.7798 34.3 69.0876 34.3 69.4673V72.214C34.3 72.5937 33.9921 72.9015 33.6125 72.9015Z" fill="#E1EFFB"/>
<path d="M76.6173 76.3296H3.38276C2.36917 76.3296 1.54761 77.1511 1.54761 78.1647C1.54761 79.1783 2.36917 79.9999 3.38276 79.9999H76.6175C77.6311 79.9999 78.4526 79.1783 78.4526 78.1647C78.4525 77.1513 77.6309 76.3296 76.6173 76.3296Z" fill="#2D5872"/>
<path d="M78.4409 77.9635C78.4395 77.9513 78.437 77.9394 78.4354 77.9272C78.4282 77.8716 78.419 77.8166 78.4068 77.7626C78.4051 77.7549 78.4028 77.7474 78.4009 77.7397C78.3868 77.6805 78.37 77.6226 78.3503 77.5655C78.3495 77.5633 78.3487 77.5612 78.3479 77.559C78.3264 77.4976 78.3017 77.4377 78.274 77.3794V77.3793C77.9795 76.7593 77.3493 76.3296 76.6173 76.3296H71.1673V76.7969C71.1673 77.6982 70.4367 78.429 69.5353 78.429H3.38276C2.65073 78.429 2.02058 77.9993 1.72604 77.3793C1.61276 77.6177 1.54761 77.8833 1.54761 78.1647C1.54761 79.1782 2.36917 79.9999 3.38276 79.9999H71.1673H76.6173C77.6309 79.9999 78.4525 79.1783 78.4525 78.1647C78.4525 78.0968 78.4481 78.0296 78.4409 77.9635Z" fill="#1D4859"/>
</g>
<defs>
<clipPath id="clip0_50_733">
<rect width="80" height="80" fill="white"/>
</clipPath>
</defs>
</svg>
