<svg width="222" height="50" viewBox="0 0 222 50" fill="none" xmlns="http://www.w3.org/2000/svg">
<path d="M58.5088 49.8619V42.0313H60.0184V49.8619H58.5088Z" fill="#283253"/>
<path d="M64.7192 49.8619V42.0313H66.2289L69.8312 47.4348V42.0313H71.3409V49.8619H69.8312L66.2289 44.4707V49.8619H64.7192Z" fill="#283253"/>
<path d="M78.208 49.8619L75.3574 42.0313H76.9683L79.1377 48.3185L81.3194 42.0313H82.918L80.0674 49.8619H78.2111H78.208Z" fill="#283253"/>
<path d="M86.947 49.8619V42.0313H92.102V43.2495H88.4567V45.2961H91.7675V46.4713H88.4567V48.6407H92.102V49.8589H86.947V49.8619Z" fill="#283253"/>
<path d="M98.9875 49.9969C98.4199 49.9969 97.9167 49.8987 97.4717 49.7054C97.0268 49.5121 96.6801 49.2268 96.4254 48.8555C96.1707 48.4842 96.0388 48.0301 96.0234 47.5023H97.6221C97.6282 47.7324 97.6896 47.9411 97.8001 48.1283C97.9136 48.3154 98.067 48.4627 98.2634 48.5701C98.4598 48.6775 98.6991 48.7328 98.9753 48.7328C99.2146 48.7328 99.4202 48.6929 99.5951 48.6162C99.77 48.5394 99.9081 48.429 100.009 48.2848C100.111 48.1436 100.16 47.9749 100.16 47.7815C100.16 47.5575 100.104 47.3704 99.9909 47.2231C99.8805 47.0727 99.727 46.9469 99.5368 46.8426C99.3465 46.7383 99.1256 46.6432 98.8771 46.5572C98.6285 46.4713 98.3677 46.3823 98.1008 46.2934C97.4748 46.0847 97.0023 45.8116 96.6801 45.4771C96.3579 45.1427 96.1983 44.6978 96.1983 44.1455C96.1983 43.676 96.3119 43.274 96.5328 42.9365C96.7537 42.599 97.0698 42.3443 97.4717 42.1663C97.8737 41.9884 98.334 41.8963 98.8464 41.8963C99.3588 41.8963 99.8406 41.9884 100.239 42.1694C100.638 42.3535 100.954 42.6143 101.191 42.958C101.427 43.3016 101.55 43.7036 101.565 44.1669H99.9418C99.9357 43.9951 99.8835 43.8325 99.7915 43.6791C99.6963 43.5256 99.5705 43.4029 99.4048 43.3108C99.2422 43.2188 99.0458 43.1697 98.8249 43.1697C98.6316 43.1636 98.4536 43.1912 98.2941 43.2587C98.1345 43.3262 98.0087 43.4244 97.9197 43.5563C97.8307 43.6852 97.7847 43.8478 97.7847 44.0442C97.7847 44.2406 97.8307 44.3879 97.9197 44.5137C98.0087 44.6395 98.1376 44.7499 98.3002 44.8451C98.4628 44.9371 98.6592 45.023 98.8802 45.1028C99.1041 45.1826 99.3465 45.2624 99.6074 45.3421C100.003 45.4771 100.362 45.6336 100.687 45.8177C101.013 46.0019 101.27 46.2381 101.464 46.5296C101.657 46.8211 101.755 47.2047 101.755 47.6803C101.755 48.0915 101.648 48.4719 101.436 48.8217C101.224 49.1715 100.911 49.4569 100.503 49.6717C100.092 49.8895 99.5859 49.9969 98.9814 49.9969H98.9875Z" fill="#283253"/>
<path d="M107.785 49.8619V43.2526H105.502V42.0344H111.574V43.2526H109.291V49.8619H107.782H107.785Z" fill="#283253"/>
<path d="M121.531 49.8619V42.0313H123.041V49.8619H121.531Z" fill="#283253"/>
<path d="M127.742 49.8619V42.0313H129.251L132.854 47.4348V42.0313H134.363V49.8619H132.854L129.251 44.4707V49.8619H127.742Z" fill="#283253"/>
<path d="M144.787 49.8619V42.0313H146.296V48.6867H149.73V49.8619H144.787Z" fill="#283253"/>
<path d="M154.001 49.8619V42.0313H155.511V49.8619H154.001Z" fill="#283253"/>
<path d="M162.384 49.8619L159.534 42.0313H161.145L163.314 48.3185L165.496 42.0313H167.094L164.244 49.8619H162.387H162.384Z" fill="#283253"/>
<path d="M171.12 49.8619V42.0313H172.63V49.8619H171.12Z" fill="#283253"/>
<path d="M177.331 49.8619V42.0313H178.84L182.443 47.4348V42.0313H183.952V49.8619H182.443L178.84 44.4707V49.8619H177.331Z" fill="#283253"/>
<path d="M192.059 49.9969C191.319 49.9969 190.675 49.8313 190.12 49.4999C189.564 49.1685 189.135 48.7021 188.828 48.1007C188.521 47.4992 188.368 46.8027 188.368 46.0049C188.368 45.2071 188.527 44.4891 188.843 43.8754C189.159 43.2617 189.61 42.7769 190.196 42.4271C190.783 42.0773 191.485 41.9024 192.304 41.9024C193.228 41.9024 193.995 42.1234 194.603 42.5621C195.21 43.0009 195.603 43.6146 195.781 44.3971H194.093C193.98 44.0534 193.774 43.7834 193.467 43.587C193.161 43.3906 192.771 43.2894 192.292 43.2894C191.786 43.2894 191.353 43.3998 191 43.6238C190.648 43.8478 190.374 44.1608 190.19 44.5628C190.003 44.9647 189.911 45.4465 189.911 46.0049C189.911 46.5634 190.003 47.0513 190.184 47.4471C190.365 47.8429 190.632 48.1436 190.979 48.3461C191.326 48.5517 191.734 48.653 192.203 48.653C192.891 48.653 193.409 48.4689 193.765 48.1007C194.118 47.7324 194.33 47.2538 194.397 46.6646H192.473V45.5355H195.919V49.865H194.532L194.409 48.8708C194.247 49.1163 194.053 49.325 193.833 49.4907C193.612 49.6594 193.357 49.7852 193.065 49.8711C192.774 49.9571 192.439 50 192.059 50V49.9969Z" fill="#283253"/>
<path d="M97.1896 6.02945H101.47V29.5428H95.3485L76.4838 10.1105V29.5428H72.2034V6.02945H78.3249L97.1896 25.4618V6.02945Z" fill="#283253"/>
<path d="M115.259 25.7287H133.32V29.5428H110.979V6.02945H115.259V25.7287Z" fill="#283253"/>
<path d="M191.409 17.7692C191.409 10.2117 196.291 5.36053 206.561 5.36053C216.831 5.36053 221.679 10.2424 221.679 17.7692C221.679 25.2961 216.797 30.2117 206.561 30.2117C196.324 30.2117 191.409 25.3298 191.409 17.7692ZM217.098 17.7692C217.098 11.7152 213.219 9.17459 206.564 9.17459C199.908 9.17459 196.03 11.6846 196.03 17.7692C196.03 23.8539 199.942 26.3977 206.564 26.3977C213.185 26.3977 217.098 23.8233 217.098 17.7692Z" fill="#283253"/>
<path d="M62.7924 6.02945V29.5428H58.512V6.02945H62.7924Z" fill="#283253"/>
<path d="M145.505 6.02945V29.5428H141.224V6.02945H145.505Z" fill="#283253"/>
<path d="M171.59 29.5428H166.873L153.262 6.02945H158.144L171.59 29.5428Z" fill="#283253"/>
<path d="M177.456 20.6229L185.904 6.02945H181.056L172.67 20.6229H177.456Z" fill="#77C47D"/>
<path d="M20.1842 0V19.417L0.850098 30.5799V0H20.1842Z" fill="#283253"/>
<path d="M39.5215 49.9969V30.5799L20.1843 19.417V49.9969H39.5215Z" fill="#77C47D"/>
<path d="M28.4997 44.0902V39.6287H24.0413V36.9254H28.4997V32.4639H31.206V36.9254H35.6645V39.6287H31.206V44.0902H28.4997Z" fill="#283253"/>
</svg>
