<svg width="80" height="80" viewBox="0 0 80 80" fill="none" xmlns="http://www.w3.org/2000/svg">
<g clip-path="url(#clip0_50_671)">
<path d="M20.4995 71.4434V76.7857C20.4995 78.561 21.9387 80.0001 23.7139 80.0001H58.4931C60.2684 80.0001 61.7075 78.561 61.7075 76.7857V71.4434H20.4995Z" fill="#36D49B"/>
<path d="M15.8706 65.8374V70.6472C15.8706 72.8213 17.6331 74.5838 19.8072 74.5838H62.4C64.574 74.5838 66.3365 72.8213 66.3365 70.6472V65.8374H15.8706Z" fill="#80E0B7"/>
<path d="M69.2952 52.2337V58.014L58.3994 68.9098C37.5112 66.8334 29.2028 50.0627 37.0842 41.3362H58.3994L69.2952 52.2337Z" fill="#80E0B7"/>
<path d="M58.3996 68.9098H23.8079L12.9121 58.014V52.2337L23.8079 41.3362H37.0845C34.4462 50.1588 40.6015 64.921 58.3996 68.9098Z" fill="#36D49B"/>
<path d="M23.8079 68.9096H17.3098C14.8809 68.9096 12.9121 66.941 12.9121 64.512V58.0137C18.9307 58.0138 23.8079 62.8912 23.8079 68.9096Z" fill="#00B762"/>
<path d="M17.3096 41.3362H23.8079C23.8079 47.3548 18.9305 52.2337 12.9121 52.2337V45.7354C12.912 43.3065 14.8805 41.3362 17.3096 41.3362Z" fill="#00B762"/>
<path d="M69.2952 45.7354V52.2337C63.2766 52.2337 58.3994 47.3548 58.3994 41.3362H64.8977C67.3266 41.3362 69.2952 43.3065 69.2952 45.7354Z" fill="#00C780"/>
<path d="M69.2954 58.0139V64.5122C69.2954 66.9413 67.3268 68.9099 64.8977 68.9099H58.3994C58.3996 62.8913 63.2769 58.0139 69.2954 58.0139Z" fill="#00C780"/>
<path d="M52.4484 55.123C52.4484 57.985 48.5 60.3672 43.2686 60.8905C37.7978 58.3712 35.6556 53.5723 36.97 49.6501C38.2512 49.3909 39.6453 49.2478 41.1036 49.2478C47.37 49.2476 52.4484 51.8778 52.4484 55.123Z" fill="#00C780"/>
<path d="M43.2686 60.8902C42.5685 60.961 41.8441 60.998 41.1036 60.998C34.8372 60.998 29.7588 58.3679 29.7588 55.1227C29.7588 52.6326 32.748 50.5062 36.97 49.6499C37.8311 53.4777 39.8883 57.4713 43.2686 60.8902Z" fill="#00B762"/>
<path d="M62.3512 13.9381L67.626 19.9228V24.6648C67.626 29.0577 64.0654 32.6181 59.6743 32.6181H52.5016C32.1395 28.4191 25.2635 9.73859 34.2271 0H59.6743C64.0654 0 67.626 3.56063 67.626 7.95328L62.3512 13.9381Z" fill="#83DEFF"/>
<path d="M52.5015 32.6183H22.5328C18.1417 32.6183 14.5811 29.0577 14.5811 24.665V19.923L18.7437 14.3294L14.5811 7.95328C14.5811 3.56063 18.1417 0 22.5328 0H34.227C30.3976 10.4516 36.5659 26.6222 52.5015 32.6183Z" fill="#2ECEFB"/>
<path d="M67.6262 7.95337V19.9229H37.0232C32.5331 17.1874 31.0515 11.6724 33.1696 7.95337H67.6262Z" fill="#5972A5"/>
<path d="M37.0229 19.9229H14.5811V7.95337H33.1695C33.419 11.9068 34.7051 16.0759 37.0229 19.9229Z" fill="#4A66A0"/>
<path d="M31.0513 15.5008C30.4039 15.5008 29.8794 14.9763 29.8794 14.3289V12.3972C29.8794 11.7499 30.4039 11.2253 31.0513 11.2253C31.6986 11.2253 32.2231 11.7499 32.2231 12.3972V14.3288C32.2231 14.9761 31.6985 15.5008 31.0513 15.5008Z" fill="white"/>
<path d="M51.1558 15.5008C50.5084 15.5008 49.9839 14.9763 49.9839 14.3289V12.3972C49.9839 11.7499 50.5084 11.2253 51.1558 11.2253C51.8031 11.2253 52.3276 11.7499 52.3276 12.3972V14.3288C52.3276 14.9761 51.8029 15.5008 51.1558 15.5008Z" fill="white"/>
<path d="M41.1038 16.6504C39.7493 16.6504 38.4614 16.0639 37.5702 15.0412C37.1449 14.5532 37.1958 13.8131 37.6838 13.3878C38.1716 12.9626 38.9118 13.0134 39.3372 13.5014C39.7832 14.0131 40.4272 14.3067 41.1039 14.3067C41.7807 14.3067 42.4246 14.0131 42.8707 13.5014C43.296 13.0134 44.0358 12.9626 44.5241 13.3878C45.0119 13.8131 45.0629 14.5532 44.6377 15.0412C43.7461 16.0639 42.4583 16.6504 41.1038 16.6504Z" fill="white"/>
<path d="M9.31005 25.4733C9.64348 24.9184 9.4638 24.1986 8.90911 23.8653C8.35442 23.532 7.63442 23.7114 7.30114 24.2662C5.1652 27.8217 3.82958 31.7272 3.33145 35.8742C2.95286 39.0251 3.07833 42.1547 3.70051 45.2134L2.36223 44.3837C1.81239 44.0423 1.08973 44.212 0.748796 44.7622C0.407859 45.3123 0.577078 46.0347 1.12723 46.3756L4.93989 48.7395C5.50692 49.102 6.32614 48.8712 6.61005 48.2586L8.80989 43.7612C9.09426 43.1797 8.85348 42.478 8.27223 42.1936C7.69052 41.9095 6.98895 42.1503 6.70458 42.7312L5.91864 44.338C5.4163 41.6544 5.32692 38.9133 5.65848 36.1537C6.11692 32.3372 7.34551 28.7437 9.31005 25.4733Z" fill="#36D49B"/>
<path d="M78.7499 24.5211L74.6822 22.6288C74.0772 22.3338 73.2891 22.6652 73.0813 23.3057L71.4338 28.0335C71.2208 28.6446 71.5435 29.3128 72.1547 29.5257C72.2822 29.5702 72.4124 29.5913 72.5403 29.5913C73.0252 29.5913 73.4784 29.2883 73.6469 28.8047L74.2355 27.1157C75.0544 29.7202 75.4702 32.4311 75.4702 35.2107C75.4702 39.055 74.6791 42.7692 73.1185 46.2505C72.8538 46.841 73.1178 47.5344 73.7085 47.7991C73.8641 47.8688 74.0269 47.9019 74.187 47.9019C74.6345 47.9019 75.062 47.6441 75.257 47.2089C76.9536 43.4242 77.8138 39.3874 77.8138 35.2105C77.8138 32.0369 77.3159 28.9446 76.3333 25.9819L77.761 26.6461C78.3481 26.9192 79.0449 26.6647 79.3178 26.078C79.5909 25.4911 79.3366 24.7941 78.7499 24.5211Z" fill="#36D49B"/>
</g>
<defs>
<clipPath id="clip0_50_671">
<rect width="80" height="80" fill="white"/>
</clipPath>
</defs>
</svg>
