<svg width="80" height="80" viewBox="0 0 80 80" fill="none" xmlns="http://www.w3.org/2000/svg">
<g clip-path="url(#clip0_50_626)">
<path d="M51.7188 75.3125V80H37.6562V0H42.3438V75.3125H51.7188Z" fill="#596C76"/>
<path d="M51.7188 75.3125V80H40V0H42.3438V75.3125H51.7188Z" fill="#465A61"/>
<path d="M28.2812 61.25V70.625L23.5938 75.3125H14.2188L9.53125 70.625H4.84375V61.25H9.53125L14.2188 56.5625H23.5938L28.2812 61.25Z" fill="#FFDA2D"/>
<path d="M28.2812 61.25V70.625L23.5938 75.3125H21.25V56.5625H23.5938L28.2812 61.25Z" fill="#FDBF00"/>
<path d="M9.53125 51.875H32.9688V61.25H9.53125V51.875Z" fill="#FDBF00"/>
<path d="M9.53125 70.625H32.9688V80H9.53125V70.625Z" fill="#FDBF00"/>
<path d="M21.25 70.625H32.9688V80H21.25V70.625Z" fill="#FF9100"/>
<path d="M21.25 51.875H32.9688V61.25H21.25V51.875Z" fill="#FF9100"/>
<path d="M4.84375 40V42.3438H18.9062L40 4.6875C20.614 4.6875 4.84375 20.614 4.84375 40Z" fill="#FF9100"/>
<path d="M40 4.6875L61.0938 42.3438H75.1562V40C75.1562 20.614 59.386 4.6875 40 4.6875Z" fill="#FF641A"/>
<path d="M40 4.6875C28.1714 4.6875 18.9062 20.2863 18.9062 40V42.3438H61.0938V40C61.0938 20.2863 51.8286 4.6875 40 4.6875Z" fill="#FDBF00"/>
<path d="M61.0938 40C61.0938 20.2863 51.8286 4.6875 40 4.6875V42.3438H61.0938V40Z" fill="#FF9100"/>
</g>
<defs>
<clipPath id="clip0_50_626">
<rect width="80" height="80" fill="white"/>
</clipPath>
</defs>
</svg>
