<svg width="80" height="80" viewBox="0 0 80 80" fill="none" xmlns="http://www.w3.org/2000/svg">
<g clip-path="url(#clip0_50_644)">
<path d="M21.7925 59.7777C9.05281 55.9439 0 43.9552 0 30.625C0 13.825 13.825 0 30.625 0C43.9552 0 55.9439 9.05281 59.7777 21.7925C60.3209 23.5966 58.6106 25.2613 56.8411 24.7061C54.4494 23.9691 51.9362 23.5938 49.375 23.5938C35.1592 23.5938 23.5938 35.1592 23.5938 49.375C23.5938 51.9362 23.9691 54.4494 24.7061 56.8411C25.2591 58.6236 23.5938 60.3162 21.7925 59.7777Z" fill="#2682FF"/>
<path d="M49.375 80C36.0448 80 24.0561 70.9472 20.2223 58.2075C19.9728 57.3789 20.2017 56.4794 20.8175 55.8683C21.4262 55.2572 22.3281 55.0352 23.1589 55.2938C25.5506 56.031 28.0637 56.4063 30.625 56.4063C44.8408 56.4063 56.4062 44.8408 56.4062 30.625C56.4062 28.0638 56.0309 25.5506 55.2939 23.1589C55.0375 22.3327 55.2595 21.4308 55.8684 20.8175C56.4795 20.2041 57.3859 19.9799 58.2077 20.2224C70.9472 24.0561 80 36.045 80 49.375C80 66.175 66.175 80 49.375 80Z" fill="#C6E2E7"/>
<path d="M61.0938 30.625C61.0938 27.1648 60.5495 23.8256 59.3927 20.6073C56.1744 19.4505 52.8352 18.9062 49.375 18.9062C47.1252 18.9062 44.9219 19.1406 42.8123 19.6095L43.7139 23.2653L37.797 21.2031C36.25 21.8125 34.797 22.6094 33.3908 23.453L35.3895 28.7016L29.5939 26.2656C28.3752 27.2502 27.2502 28.375 26.3127 29.5939L28.8455 35.6203L23.453 33.3908C22.6092 34.75 21.8594 36.2502 21.2031 37.7502L23.3461 43.8798L19.6095 42.8123C19.1406 44.9219 18.9062 47.1252 18.9062 49.375C18.9062 52.8352 19.4505 56.1744 20.6073 59.3927C23.8256 60.5495 27.1648 61.0938 30.625 61.0938C32.8748 61.0938 35.0781 60.8594 37.1877 60.3905L35.8161 56.1309L42.25 58.7969C43.75 58.1406 45.25 57.3906 46.6094 56.547L44.1225 50.8095L50.4061 53.6875C51.6248 52.75 52.7498 51.625 53.7344 50.4062L50.7655 43.9447L56.547 46.6094C57.3908 45.2031 58.1875 43.75 58.7969 42.2031L56.0944 35.6673L60.3905 37.1877C60.8594 35.0781 61.0938 32.8748 61.0938 30.625Z" fill="#7ED8F6"/>
<path d="M30.6251 61.0938C32.8749 61.0938 35.0782 60.8595 37.1877 60.3905L35.8162 56.131L42.2501 58.797C43.7501 58.1407 45.2501 57.3907 46.6095 56.5471L44.1226 50.8096L50.4062 53.6876C51.6249 52.7501 52.7499 51.6251 53.7345 50.4063L50.7655 43.9448L56.5471 46.6095C57.3909 45.2032 58.1876 43.7501 58.797 42.2032L56.0945 35.6674L60.3905 37.1877C60.8595 35.0782 61.0938 32.8749 61.0938 30.6251C61.0938 27.1649 60.5496 23.8255 59.3927 20.6074L20.6074 59.3927C23.8255 60.5496 27.1649 61.0938 30.6251 61.0938Z" fill="#6AA9FF"/>
<path d="M42.2498 58.7969C40.6094 59.4531 38.9219 60.0156 37.1875 60.3905L19.6094 42.8123C19.9842 41.078 20.5467 39.3906 21.203 37.75L42.2498 58.7969Z" fill="#2682FF"/>
<path d="M50.406 53.6873C49.2341 54.7656 47.9687 55.703 46.6091 56.5469L23.4529 33.3906C24.2969 32.0311 25.2341 30.7656 26.3124 29.5938L50.406 53.6873Z" fill="#2682FF"/>
<path d="M56.5471 46.6094C55.7031 47.9689 54.7659 49.2344 53.7345 50.4062L29.594 26.2658C30.7659 25.2344 32.0313 24.2972 33.3909 23.4531L56.5471 46.6094Z" fill="#2682FF"/>
<path d="M60.3906 37.1877C60.0157 38.9221 59.4532 40.6095 58.797 42.2031L37.7971 21.2032C39.3907 20.547 41.0782 19.9845 42.8124 19.6096L60.3906 37.1877Z" fill="#2682FF"/>
<path d="M37.1877 60.3905C38.9221 60.0156 40.6095 59.4531 42.2501 58.7969L31.7266 48.2734L28.3987 51.6014L37.1877 60.3905Z" fill="#2682FF"/>
<path d="M46.6092 56.547C47.9688 55.703 49.2342 54.7658 50.4061 53.6875L38.3595 41.6406L35.0312 44.9687L46.6092 56.547Z" fill="#2682FF"/>
<path d="M53.7345 50.4062C54.7659 49.2343 55.7031 47.9688 56.5471 46.6093L44.9692 35.031L41.6643 38.3358L53.7345 50.4062Z" fill="#2682FF"/>
<path d="M48.2971 31.7031L58.7971 42.2031C59.4534 40.6095 60.0159 38.922 60.3907 37.1877L51.6016 28.3987L48.2971 31.7031Z" fill="#2682FF"/>
</g>
<defs>
<clipPath id="clip0_50_644">
<rect width="80" height="80" fill="white"/>
</clipPath>
</defs>
</svg>
