<svg width="222" height="54" viewBox="0 0 222 54" fill="none" xmlns="http://www.w3.org/2000/svg">
<rect width="222" height="53.25" fill="white"/>
<path d="M27 30.1042L30.0417 29.3333L31.3125 33.25L27 30.1042ZM34 25.0417H28.6458L27 20L25.3542 25.0417H20L24.3333 28.1667L22.6875 33.2083L27.0208 30.0833L29.6875 28.1667L34 25.0417Z" fill="#219653"/>
<path d="M41.48 32.125V23.26H38.405V21.625H46.55V23.26H43.49V32.125H41.48ZM47.2371 32.125V24.565H49.0371L49.2321 25.96C49.4121 25.63 49.6371 25.35 49.9071 25.12C50.1871 24.89 50.5021 24.71 50.8521 24.58C51.2121 24.45 51.6071 24.385 52.0371 24.385V26.53H51.3471C51.0471 26.53 50.7671 26.565 50.5071 26.635C50.2571 26.705 50.0371 26.82 49.8471 26.98C49.6571 27.13 49.5121 27.34 49.4121 27.61C49.3121 27.88 49.2621 28.22 49.2621 28.63V32.125H47.2371ZM56.1948 32.305C55.5848 32.305 55.0598 32.18 54.6198 31.93C54.1898 31.67 53.8598 31.295 53.6298 30.805C53.3998 30.305 53.2848 29.69 53.2848 28.96V24.565H55.3098V28.75C55.3098 29.36 55.4348 29.82 55.6848 30.13C55.9448 30.44 56.3398 30.595 56.8698 30.595C57.2098 30.595 57.5098 30.52 57.7698 30.37C58.0298 30.21 58.2348 29.985 58.3848 29.695C58.5448 29.395 58.6248 29.03 58.6248 28.6V24.565H60.6348V32.125H58.8648L58.6998 30.895C58.4798 31.325 58.1548 31.67 57.7248 31.93C57.2948 32.18 56.7848 32.305 56.1948 32.305ZM65.7079 32.305C65.0179 32.305 64.4179 32.195 63.9079 31.975C63.3979 31.755 62.9979 31.45 62.7079 31.06C62.4179 30.67 62.2529 30.23 62.2129 29.74H64.2229C64.2729 29.93 64.3579 30.105 64.4779 30.265C64.5979 30.415 64.7579 30.535 64.9579 30.625C65.1579 30.715 65.3979 30.76 65.6779 30.76C65.9479 30.76 66.1679 30.725 66.3379 30.655C66.5079 30.575 66.6329 30.47 66.7129 30.34C66.8029 30.21 66.8479 30.075 66.8479 29.935C66.8479 29.725 66.7879 29.565 66.6679 29.455C66.5479 29.335 66.3729 29.24 66.1429 29.17C65.9129 29.1 65.6329 29.03 65.3029 28.96C64.9429 28.89 64.5879 28.805 64.2379 28.705C63.8979 28.595 63.5929 28.46 63.3229 28.3C63.0529 28.14 62.8379 27.935 62.6779 27.685C62.5179 27.435 62.4379 27.125 62.4379 26.755C62.4379 26.305 62.5579 25.905 62.7979 25.555C63.0379 25.195 63.3879 24.91 63.8479 24.7C64.3079 24.49 64.8629 24.385 65.5129 24.385C66.4229 24.385 67.1429 24.59 67.6729 25C68.2029 25.41 68.5179 25.975 68.6179 26.695H66.7129C66.6529 26.465 66.5179 26.285 66.3079 26.155C66.1079 26.015 65.8379 25.945 65.4979 25.945C65.1379 25.945 64.8629 26.01 64.6729 26.14C64.4829 26.27 64.3879 26.44 64.3879 26.65C64.3879 26.79 64.4479 26.915 64.5679 27.025C64.6979 27.135 64.8779 27.23 65.1079 27.31C65.3379 27.38 65.6179 27.45 65.9479 27.52C66.5279 27.64 67.0379 27.78 67.4779 27.94C67.9179 28.09 68.2629 28.31 68.5129 28.6C68.7629 28.88 68.8879 29.29 68.8879 29.83C68.8879 30.31 68.7579 30.74 68.4979 31.12C68.2379 31.49 67.8679 31.78 67.3879 31.99C66.9179 32.2 66.3579 32.305 65.7079 32.305ZM73.772 32.125C73.242 32.125 72.777 32.045 72.377 31.885C71.987 31.715 71.682 31.44 71.462 31.06C71.242 30.67 71.132 30.14 71.132 29.47V26.26H69.842V24.565H71.132L71.357 22.51H73.157V24.565H75.152V26.26H73.157V29.5C73.157 29.84 73.232 30.075 73.382 30.205C73.532 30.335 73.787 30.4 74.147 30.4H75.137V32.125H73.772ZM76.8562 35.425V24.565H78.6562L78.8812 25.615C79.0412 25.395 79.2312 25.195 79.4512 25.015C79.6712 24.825 79.9312 24.675 80.2312 24.565C80.5412 24.445 80.9012 24.385 81.3112 24.385C82.0212 24.385 82.6462 24.56 83.1862 24.91C83.7262 25.26 84.1512 25.735 84.4612 26.335C84.7812 26.925 84.9412 27.6 84.9412 28.36C84.9412 29.12 84.7812 29.8 84.4612 30.4C84.1412 30.99 83.7112 31.455 83.1712 31.795C82.6312 32.135 82.0162 32.305 81.3262 32.305C80.7662 32.305 80.2812 32.205 79.8712 32.005C79.4712 31.795 79.1412 31.51 78.8812 31.15V35.425H76.8562ZM80.8462 30.535C81.2462 30.535 81.5962 30.445 81.8962 30.265C82.2062 30.085 82.4462 29.83 82.6162 29.5C82.7862 29.17 82.8712 28.79 82.8712 28.36C82.8712 27.93 82.7862 27.55 82.6162 27.22C82.4462 26.88 82.2062 26.62 81.8962 26.44C81.5962 26.25 81.2462 26.155 80.8462 26.155C80.4562 26.155 80.1062 26.25 79.7962 26.44C79.4962 26.62 79.2562 26.875 79.0762 27.205C78.9062 27.535 78.8212 27.915 78.8212 28.345C78.8212 28.775 78.9062 29.16 79.0762 29.5C79.2562 29.83 79.4962 30.085 79.7962 30.265C80.1062 30.445 80.4562 30.535 80.8462 30.535ZM86.7303 32.125V24.565H88.7553V32.125H86.7303ZM87.7503 23.53C87.3903 23.53 87.0903 23.425 86.8503 23.215C86.6203 22.995 86.5053 22.72 86.5053 22.39C86.5053 22.06 86.6203 21.79 86.8503 21.58C87.0903 21.36 87.3903 21.25 87.7503 21.25C88.1203 21.25 88.4203 21.36 88.6503 21.58C88.8903 21.79 89.0103 22.06 89.0103 22.39C89.0103 22.72 88.8903 22.995 88.6503 23.215C88.4203 23.425 88.1203 23.53 87.7503 23.53ZM90.8015 32.125V21.325H92.8265V32.125H90.8015ZM98.3705 32.305C97.6505 32.305 97.0005 32.14 96.4205 31.81C95.8505 31.47 95.3955 31.005 95.0555 30.415C94.7255 29.815 94.5605 29.13 94.5605 28.36C94.5605 27.57 94.7255 26.88 95.0555 26.29C95.3955 25.69 95.8555 25.225 96.4355 24.895C97.0155 24.555 97.6655 24.385 98.3855 24.385C99.1155 24.385 99.7655 24.555 100.336 24.895C100.916 25.225 101.371 25.69 101.701 26.29C102.041 26.88 102.211 27.565 102.211 28.345C102.211 29.125 102.041 29.815 101.701 30.415C101.371 31.005 100.916 31.47 100.336 31.81C99.7555 32.14 99.1005 32.305 98.3705 32.305ZM98.3705 30.55C98.7105 30.55 99.0105 30.47 99.2705 30.31C99.5405 30.15 99.7505 29.905 99.9005 29.575C100.061 29.245 100.141 28.835 100.141 28.345C100.141 27.855 100.061 27.45 99.9005 27.13C99.7505 26.8 99.5405 26.555 99.2705 26.395C99.0105 26.225 98.7155 26.14 98.3855 26.14C98.0655 26.14 97.7705 26.225 97.5005 26.395C97.2305 26.555 97.0155 26.8 96.8555 27.13C96.7055 27.45 96.6305 27.855 96.6305 28.345C96.6305 28.835 96.7055 29.245 96.8555 29.575C97.0155 29.905 97.2255 30.15 97.4855 30.31C97.7555 30.47 98.0505 30.55 98.3705 30.55ZM107.068 32.125C106.538 32.125 106.073 32.045 105.673 31.885C105.283 31.715 104.978 31.44 104.758 31.06C104.538 30.67 104.428 30.14 104.428 29.47V26.26H103.138V24.565H104.428L104.653 22.51H106.453V24.565H108.448V26.26H106.453V29.5C106.453 29.84 106.528 30.075 106.678 30.205C106.828 30.335 107.083 30.4 107.443 30.4H108.433V32.125H107.068Z" fill="black"/>
<path d="M125.835 32.125V30.22H120.675V28.615L125.565 21.625H127.86V28.465H129.225V30.22H127.86V32.125H125.835ZM122.835 28.465H125.97V23.86L122.835 28.465ZM131.661 32.2C131.281 32.2 130.976 32.09 130.746 31.87C130.516 31.64 130.401 31.36 130.401 31.03C130.401 30.7 130.516 30.425 130.746 30.205C130.976 29.975 131.281 29.86 131.661 29.86C132.021 29.86 132.316 29.975 132.546 30.205C132.776 30.425 132.891 30.7 132.891 31.03C132.891 31.36 132.776 31.64 132.546 31.87C132.316 32.09 132.021 32.2 131.661 32.2ZM138.275 32.305C137.565 32.305 136.915 32.175 136.325 31.915C135.745 31.655 135.285 31.29 134.945 30.82C134.605 30.35 134.435 29.805 134.435 29.185C134.435 28.755 134.505 28.365 134.645 28.015C134.795 27.665 135 27.355 135.26 27.085C135.52 26.815 135.83 26.61 136.19 26.47C135.74 26.26 135.375 25.96 135.095 25.57C134.825 25.18 134.69 24.74 134.69 24.25C134.69 23.76 134.825 23.3 135.095 22.87C135.365 22.44 135.765 22.095 136.295 21.835C136.825 21.575 137.485 21.445 138.275 21.445C139.065 21.445 139.725 21.575 140.255 21.835C140.785 22.095 141.185 22.44 141.455 22.87C141.725 23.3 141.86 23.76 141.86 24.25C141.86 24.73 141.72 25.17 141.44 25.57C141.17 25.96 140.81 26.26 140.36 26.47C140.72 26.62 141.03 26.83 141.29 27.1C141.56 27.36 141.765 27.665 141.905 28.015C142.055 28.365 142.13 28.755 142.13 29.185C142.13 29.805 141.955 30.35 141.605 30.82C141.265 31.29 140.805 31.655 140.225 31.915C139.645 32.175 138.995 32.305 138.275 32.305ZM138.275 30.61C138.895 30.61 139.36 30.46 139.67 30.16C139.98 29.86 140.135 29.48 140.135 29.02C140.135 28.51 139.97 28.11 139.64 27.82C139.32 27.52 138.865 27.37 138.275 27.37C137.695 27.37 137.235 27.52 136.895 27.82C136.565 28.11 136.4 28.51 136.4 29.02C136.4 29.48 136.56 29.86 136.88 30.16C137.2 30.46 137.665 30.61 138.275 30.61ZM138.275 25.885C138.785 25.885 139.175 25.755 139.445 25.495C139.725 25.235 139.865 24.9 139.865 24.49C139.865 24.05 139.725 23.71 139.445 23.47C139.175 23.22 138.785 23.095 138.275 23.095C137.775 23.095 137.385 23.22 137.105 23.47C136.825 23.71 136.685 24.055 136.685 24.505C136.685 24.905 136.825 25.235 137.105 25.495C137.385 25.755 137.775 25.885 138.275 25.885ZM150.983 32.305C150.283 32.305 149.653 32.145 149.093 31.825C148.533 31.495 148.093 31.035 147.773 30.445C147.453 29.845 147.293 29.15 147.293 28.36C147.293 27.55 147.453 26.85 147.773 26.26C148.103 25.66 148.548 25.2 149.108 24.88C149.678 24.55 150.313 24.385 151.013 24.385C151.733 24.385 152.368 24.55 152.918 24.88C153.478 25.2 153.918 25.66 154.238 26.26C154.568 26.85 154.733 27.545 154.733 28.345C154.733 29.145 154.568 29.845 154.238 30.445C153.908 31.035 153.463 31.495 152.903 31.825C152.343 32.145 151.703 32.305 150.983 32.305ZM150.998 31.225C151.428 31.225 151.828 31.12 152.198 30.91C152.568 30.69 152.868 30.365 153.098 29.935C153.328 29.505 153.443 28.975 153.443 28.345C153.443 27.705 153.328 27.175 153.098 26.755C152.878 26.325 152.583 26.005 152.213 25.795C151.853 25.575 151.453 25.465 151.013 25.465C150.593 25.465 150.193 25.575 149.813 25.795C149.443 26.005 149.143 26.325 148.913 26.755C148.693 27.175 148.583 27.705 148.583 28.345C148.583 28.975 148.693 29.505 148.913 29.935C149.143 30.365 149.438 30.69 149.798 30.91C150.168 31.12 150.568 31.225 150.998 31.225ZM159.244 32.305C158.664 32.305 158.154 32.19 157.714 31.96C157.284 31.73 156.949 31.375 156.709 30.895C156.479 30.415 156.364 29.815 156.364 29.095V24.565H157.624V28.96C157.624 29.71 157.789 30.275 158.119 30.655C158.449 31.035 158.914 31.225 159.514 31.225C159.934 31.225 160.314 31.125 160.654 30.925C160.994 30.715 161.259 30.42 161.449 30.04C161.649 29.65 161.749 29.175 161.749 28.615V24.565H163.009V32.125H161.869L161.794 30.805C161.564 31.275 161.224 31.645 160.774 31.915C160.324 32.175 159.814 32.305 159.244 32.305ZM168.068 32.125C167.618 32.125 167.228 32.055 166.898 31.915C166.568 31.775 166.313 31.54 166.133 31.21C165.963 30.87 165.878 30.415 165.878 29.845V25.63H164.558V24.565H165.878L166.043 22.735H167.138V24.565H169.328V25.63H167.138V29.845C167.138 30.315 167.233 30.635 167.423 30.805C167.613 30.965 167.948 31.045 168.428 31.045H169.238V32.125H168.068ZM178.331 32.305C177.631 32.305 177.001 32.145 176.441 31.825C175.881 31.495 175.441 31.035 175.121 30.445C174.801 29.845 174.641 29.15 174.641 28.36C174.641 27.55 174.801 26.85 175.121 26.26C175.451 25.66 175.896 25.2 176.456 24.88C177.026 24.55 177.661 24.385 178.361 24.385C179.081 24.385 179.716 24.55 180.266 24.88C180.826 25.2 181.266 25.66 181.586 26.26C181.916 26.85 182.081 27.545 182.081 28.345C182.081 29.145 181.916 29.845 181.586 30.445C181.256 31.035 180.811 31.495 180.251 31.825C179.691 32.145 179.051 32.305 178.331 32.305ZM178.346 31.225C178.776 31.225 179.176 31.12 179.546 30.91C179.916 30.69 180.216 30.365 180.446 29.935C180.676 29.505 180.791 28.975 180.791 28.345C180.791 27.705 180.676 27.175 180.446 26.755C180.226 26.325 179.931 26.005 179.561 25.795C179.201 25.575 178.801 25.465 178.361 25.465C177.941 25.465 177.541 25.575 177.161 25.795C176.791 26.005 176.491 26.325 176.261 26.755C176.041 27.175 175.931 27.705 175.931 28.345C175.931 28.975 176.041 29.505 176.261 29.935C176.491 30.365 176.786 30.69 177.146 30.91C177.516 31.12 177.916 31.225 178.346 31.225ZM184.268 32.125V23.395C184.268 22.915 184.348 22.525 184.508 22.225C184.668 21.915 184.903 21.69 185.213 21.55C185.533 21.4 185.923 21.325 186.383 21.325H187.238V22.405H186.578C186.208 22.405 185.938 22.48 185.768 22.63C185.608 22.78 185.528 23.045 185.528 23.425V32.125H184.268ZM183.113 25.63V24.565H187.433V25.63H183.113ZM196.545 32.305C195.825 32.305 195.2 32.175 194.67 31.915C194.15 31.655 193.735 31.3 193.425 30.85C193.125 30.4 192.935 29.895 192.855 29.335H194.085C194.205 29.895 194.48 30.35 194.91 30.7C195.34 31.05 195.89 31.225 196.56 31.225C197.06 31.225 197.485 31.11 197.835 30.88C198.195 30.65 198.47 30.335 198.66 29.935C198.86 29.535 198.96 29.09 198.96 28.6C198.96 28.09 198.86 27.64 198.66 27.25C198.46 26.86 198.185 26.56 197.835 26.35C197.485 26.13 197.075 26.02 196.605 26.02C196.035 26.02 195.55 26.145 195.15 26.395C194.75 26.645 194.45 26.965 194.25 27.355H193.035L193.905 21.625H199.455V22.72H194.88L194.295 25.945C194.545 25.655 194.875 25.42 195.285 25.24C195.705 25.05 196.19 24.955 196.74 24.955C197.26 24.955 197.73 25.045 198.15 25.225C198.57 25.405 198.93 25.66 199.23 25.99C199.53 26.32 199.76 26.705 199.92 27.145C200.09 27.585 200.175 28.065 200.175 28.585C200.175 29.095 200.09 29.575 199.92 30.025C199.76 30.465 199.525 30.86 199.215 31.21C198.905 31.55 198.525 31.82 198.075 32.02C197.625 32.21 197.115 32.305 196.545 32.305Z" fill="black"/>
</svg>
